# xmcd
#
# Track frame offsets:
# 151
# 51068
# 82795
# 149345
# 175523
# 205851
# 259617
# 289056
#
# Disc length: 4405 seconds
#
# Revision: 0
# Processed by: cddbd v1.5.2PL0 Copyright (c) Steve Scherf et al.
# Submitted via: Audion 3.0.2 (http://www.panic.com/audion/)
#
DISCID=65113308
DTITLE=T M Krishna - Vaishnava Sketra
DYEAR=1900
DGENRE=
TTITLE0=ranga sriranga (asaveri)
TTITLE1=karumugil vannam (sriranjani)
TTITLE2=tiruvadi darisanam (devagandhari)
TTITLE3=satre tirumbum (kalyani)
TTITLE4=kandu kali (kiravani)
TTITLE5=parthasarathi (kambhoji)
TTITLE6=jagattinai (yamuna kalyani)
TTITLE7=aiyan azhagan (suratti)
EXTD=
EXTT0=
EXTT1=
EXTT2=
EXTT3=
EXTT4=
EXTT5=
EXTT6=
EXTT7=
PLAYORDER=
